<svg width="130" height="23" viewBox="0 0 130 23" fill="none" xmlns="http://www.w3.org/2000/svg">
<path d="M9.04545 4.54545V6.81818H0V4.54545H9.04545ZM2.63636 0.363636H5.31818V17C5.31818 17.7576 5.42803 18.3258 5.64773 18.7045C5.875 19.0758 6.16288 19.3258 6.51136 19.4545C6.86742 19.5758 7.24242 19.6364 7.63636 19.6364C7.93182 19.6364 8.17424 19.6212 8.36364 19.5909C8.55303 19.553 8.70455 19.5227 8.81818 19.5L9.36364 21.9091C9.18182 21.9773 8.92803 22.0455 8.60227 22.1136C8.27652 22.1894 7.86364 22.2273 7.36364 22.2273C6.60606 22.2273 5.86364 22.0644 5.13636 21.7386C4.41667 21.4129 3.81818 20.9167 3.34091 20.25C2.87121 19.5833 2.63636 18.7424 2.63636 17.7273V0.363636ZM18.2159 22.4091C17.1098 22.4091 16.1061 22.2008 15.2045 21.7841C14.303 21.3598 13.5871 20.75 13.0568 19.9545C12.5265 19.1515 12.2614 18.1818 12.2614 17.0455C12.2614 16.0455 12.4583 15.2348 12.8523 14.6136C13.2462 13.9848 13.7727 13.4924 14.4318 13.1364C15.0909 12.7803 15.8182 12.5152 16.6136 12.3409C17.4167 12.1591 18.2235 12.0152 19.0341 11.9091C20.0947 11.7727 20.9545 11.6705 21.6136 11.6023C22.2803 11.5265 22.7652 11.4015 23.0682 11.2273C23.3788 11.053 23.5341 10.75 23.5341 10.3182V10.2273C23.5341 9.10606 23.2273 8.23485 22.6136 7.61364C22.0076 6.99242 21.0871 6.68182 19.8523 6.68182C18.572 6.68182 17.5682 6.96212 16.8409 7.52273C16.1136 8.08333 15.6023 8.68182 15.3068 9.31818L12.7614 8.40909C13.2159 7.34848 13.822 6.52273 14.5795 5.93182C15.3447 5.33333 16.178 4.91667 17.0795 4.68182C17.9886 4.43939 18.8826 4.31818 19.7614 4.31818C20.322 4.31818 20.9659 4.38636 21.6932 4.52273C22.428 4.65151 23.1364 4.92045 23.8182 5.32954C24.5076 5.73864 25.0795 6.35606 25.5341 7.18182C25.9886 8.00758 26.2159 9.11364 26.2159 10.5V22H23.5341V19.6364H23.3977C23.2159 20.0152 22.9129 20.4205 22.4886 20.8523C22.0644 21.2841 21.5 21.6515 20.7955 21.9545C20.0909 22.2576 19.2311 22.4091 18.2159 22.4091ZM18.625 20C19.6856 20 20.5795 19.7917 21.3068 19.375C22.0417 18.9583 22.5947 18.4205 22.9659 17.7614C23.3447 17.1023 23.5341 16.4091 23.5341 15.6818V13.2273C23.4205 13.3636 23.1705 13.4886 22.7841 13.6023C22.4053 13.7083 21.9659 13.803 21.4659 13.8864C20.9735 13.9621 20.4924 14.0303 20.0227 14.0909C19.5606 14.1439 19.1856 14.1894 18.8977 14.2273C18.2008 14.3182 17.5492 14.4659 16.9432 14.6705C16.3447 14.8674 15.8598 15.1667 15.4886 15.5682C15.125 15.9621 14.9432 16.5 14.9432 17.1818C14.9432 18.1136 15.2879 18.8182 15.9773 19.2955C16.6742 19.7652 17.5568 20 18.625 20ZM38.7017 4.54545V6.81818H29.6562V4.54545H38.7017ZM32.2926 0.363636H34.9744V17C34.9744 17.7576 35.0843 18.3258 35.304 18.7045C35.5313 19.0758 35.8191 19.3258 36.1676 19.4545C36.5237 19.5758 36.8987 19.6364 37.2926 19.6364C37.5881 19.6364 37.8305 19.6212 38.0199 19.5909C38.2093 19.553 38.3608 19.5227 38.4744 19.5L39.0199 21.9091C38.8381 21.9773 38.5843 22.0455 38.2585 22.1136C37.9328 22.1894 37.5199 22.2273 37.0199 22.2273C36.2623 22.2273 35.5199 22.0644 34.7926 21.7386C34.0729 21.4129 33.4744 20.9167 32.9972 20.25C32.5275 19.5833 32.2926 18.7424 32.2926 17.7273V0.363636ZM53.6253 17.968L54.6813 20.56C53.2519 21.7547 51.4173 22.352 49.1773 22.352C46.8733 22.352 44.9959 21.6587 43.5453 20.272C42.1373 18.9067 41.4333 17.0827 41.4333 14.8C41.4333 12.6667 42.1266 10.8747 43.5133 9.424C44.8999 7.97333 46.7453 7.248 49.0493 7.248C50.9479 7.248 52.5586 7.87733 53.8813 9.136C55.2039 10.3947 55.8653 11.9947 55.8653 13.936C55.8653 14.7893 55.7906 15.4507 55.6413 15.92H45.2413C45.3906 16.9653 45.8493 17.7867 46.6173 18.384C47.4066 18.9813 48.3879 19.28 49.5613 19.28C51.1613 19.28 52.5159 18.8427 53.6253 17.968ZM48.8893 10.32C46.7986 10.32 45.5399 11.3653 45.1133 13.456H52.1853C52.2066 12.5387 51.9079 11.792 51.2893 11.216C50.6919 10.6187 49.8919 10.32 48.8893 10.32ZM67.9278 7.6H71.7998L65.5918 22.064H62.8718L56.2477 7.6H60.6318L63.2878 13.776C63.7358 14.7787 64.0984 15.8667 64.3758 17.04C64.6744 15.824 65.0264 14.7147 65.4318 13.712L67.9278 7.6ZM84.5315 17.968L85.5875 20.56C84.1582 21.7547 82.3235 22.352 80.0835 22.352C77.7795 22.352 75.9022 21.6587 74.4515 20.272C73.0435 18.9067 72.3395 17.0827 72.3395 14.8C72.3395 12.6667 73.0328 10.8747 74.4195 9.424C75.8062 7.97333 77.6515 7.248 79.9555 7.248C81.8542 7.248 83.4648 7.87733 84.7875 9.136C86.1102 10.3947 86.7715 11.9947 86.7715 13.936C86.7715 14.7893 86.6968 15.4507 86.5475 15.92H76.1475C76.2968 16.9653 76.7555 17.7867 77.5235 18.384C78.3128 18.9813 79.2942 19.28 80.4675 19.28C82.0675 19.28 83.4222 18.8427 84.5315 17.968ZM79.7955 10.32C77.7048 10.32 76.4462 11.3653 76.0195 13.456H83.0915C83.1128 12.5387 82.8142 11.792 82.1955 11.216C81.5982 10.6187 80.7982 10.32 79.7955 10.32ZM93.4155 22H89.7355V7.6H93.4155V9.04C94.4822 7.90933 95.8582 7.344 97.5435 7.344C101.49 7.344 103.464 9.41333 103.464 13.552V22H99.7835V14.192C99.7835 11.9307 98.7062 10.8 96.5515 10.8C95.3782 10.8 94.3328 11.2587 93.4155 12.176V22ZM106.884 16.528V3.6H110.564V7.6H115.204V11.056H110.564V16.304C110.564 18.032 111.14 18.896 112.292 18.896C113.018 18.896 113.754 18.6187 114.5 18.064L115.62 20.912C114.447 21.8507 113.028 22.32 111.364 22.32C109.807 22.32 108.666 21.8507 107.94 20.912C107.236 19.952 106.884 18.4907 106.884 16.528ZM118.256 11.632C118.256 10.288 118.746 9.22133 119.728 8.432C120.709 7.64267 121.978 7.248 123.536 7.248C125.882 7.248 127.706 7.856 129.008 9.072L127.632 11.696C126.458 10.7787 125.157 10.32 123.728 10.32C123.216 10.32 122.789 10.448 122.448 10.704C122.106 10.9387 121.936 11.2267 121.936 11.568C121.936 12.272 122.842 12.8587 124.656 13.328C125.317 13.4773 125.904 13.648 126.416 13.84C126.928 14.0107 127.45 14.2667 127.984 14.608C128.538 14.928 128.965 15.3547 129.264 15.888C129.562 16.4213 129.712 17.04 129.712 17.744C129.712 19.152 129.178 20.272 128.112 21.104C127.066 21.936 125.658 22.352 123.888 22.352C122.629 22.352 121.402 22.0853 120.208 21.552C118.992 20.9973 118.213 20.4427 117.872 19.888L119.664 17.488C120.069 17.9787 120.741 18.3947 121.68 18.736C122.64 19.0987 123.461 19.28 124.144 19.28C124.976 19.3653 125.562 19.0987 125.904 18.48C126.245 17.84 126.021 17.3173 125.232 16.912C124.912 16.7413 124.41 16.56 123.728 16.368C123.066 16.176 122.448 15.984 121.872 15.792C121.317 15.5787 120.741 15.312 120.144 14.992C119.568 14.672 119.109 14.2347 118.768 13.68C118.426 13.104 118.256 12.4213 118.256 11.632Z" fill="black"/>
</svg>
